<svg width="315" height="314" viewBox="0 0 315 314" fill="none" xmlns="http://www.w3.org/2000/svg">
<g clip-path="url(#clip0_122_194)">
<rect width="315" height="314" fill="#4A4DC7"/>
<g clip-path="url(#clip1_122_194)">
<path d="M237.141 171.384C237.14 171.366 237.134 171.348 237.123 171.333L237.101 171.272L236.772 170.505L236.754 170.459L236.736 170.43C236.56 170.061 236.354 169.705 236.121 169.368L236.11 169.35L236.099 169.339C235.882 169.022 235.634 168.726 235.36 168.456L235.338 168.434C234.129 167.428 232.601 166.885 231.027 166.901L215.742 167.021V166.663H215.731V140.039C215.791 139.417 215.778 138.79 215.691 138.171L215.673 138.102C215.642 137.876 215.585 137.654 215.503 137.44C215.336 137.005 215.139 136.582 214.913 136.175C214.913 136.175 214.913 136.157 214.901 136.153C214.621 135.651 214.287 135.181 213.906 134.75C213.826 134.66 213.74 134.569 213.66 134.483L213.479 134.302C213.417 134.24 213.377 134.205 213.377 134.205C211.057 132.047 206.962 130.879 199.49 131.577V183.084H237.842C238.454 179.178 238.219 175.187 237.154 171.38" fill="white"/>
<path d="M237.146 171.369C234.442 170.38 231.587 169.862 228.707 169.836L213.422 169.955L213.369 135.059V134.176C213.369 134.176 213.409 134.209 213.471 134.273L213.652 134.454C213.732 134.54 213.818 134.631 213.898 134.721C214.293 135.141 214.628 135.613 214.893 136.124C214.893 136.124 214.893 136.141 214.904 136.146C215.213 136.764 215.467 137.409 215.665 138.071L215.683 138.14C215.77 138.759 215.783 139.386 215.723 140.008V160.583L215.747 166.638V167.014L231.032 166.894C232.606 166.878 234.134 167.421 235.343 168.427L235.366 168.449L236.104 169.332L236.115 169.343L236.126 169.361L236.741 170.423L236.759 170.452L236.777 170.498L237.106 171.265L237.129 171.327L237.146 171.369Z" fill="white"/>
<path d="M235.331 168.428C234.122 167.422 232.593 166.879 231.02 166.896L215.734 167.015V166.637L215.723 160.597V140.025C215.784 139.402 215.77 138.775 215.684 138.156L235.331 168.428Z" fill="#EAEAEA"/>
<path d="M215.734 140.023V160.598L215.684 138.148C215.77 138.767 215.784 139.395 215.723 140.017" fill="#EAEAEA"/>
<path d="M10 131.855H30.6824C47.3456 131.855 57.1427 141.888 57.1427 157.521C57.1427 173.154 47.3456 183.184 30.6824 183.184H10V131.855ZM29.8441 169.307C37.0442 169.307 41.1475 164.709 41.1475 157.521C41.1475 150.249 37.0442 145.651 29.8441 145.651H25.9089V169.307H29.8441Z" fill="white"/>
<path d="M99.7701 136.232V145.649H77.0769V150.507H93.4592C94.622 150.507 95.7371 150.968 96.5593 151.789C97.3815 152.61 97.8434 153.723 97.8434 154.884V163.881H77.0769V169.315H95.3837C96.5464 169.315 97.6616 169.777 98.4838 170.597C99.306 171.418 99.7679 172.532 99.7679 173.692V183.188H61.084V131.855H95.3859C96.5486 131.855 97.6638 132.317 98.486 133.137C99.3082 133.958 99.7701 135.072 99.7701 136.232Z" fill="white"/>
<path d="M104.113 165.712C109.144 168.795 114.879 170.549 120.776 170.811C124.125 170.811 127.558 170.559 127.558 168.136C127.558 166.549 126.554 166.129 124.795 165.628L116.925 163.62C107.21 161.03 102.697 156.432 102.697 147.906C102.697 136.955 111.733 131.019 123.371 131.019C129.174 130.828 134.932 132.093 140.118 134.698V149.074C135.424 145.889 129.885 144.172 124.209 144.143C121.112 144.143 118.765 144.728 118.765 146.4C118.765 147.904 119.854 148.489 121.612 148.909L128.981 150.916C139.196 153.842 143.885 159.025 143.885 167.05C143.887 179.16 133.42 184.019 121.278 184.019C115.322 184.028 109.446 182.655 104.113 180.006V165.712Z" fill="white"/>
<path d="M163.564 153.338L177.38 131.855H195.961L179.556 156.43L196.722 183.179H177.882L163.564 160.526V183.186H147.318V131.858H159.177C160.34 131.858 161.455 132.319 162.277 133.14C163.099 133.96 163.561 135.074 163.561 136.235L163.564 153.338Z" fill="white"/>
<path d="M258.681 183.184H242.436V131.855H254.294C254.87 131.855 255.44 131.969 255.972 132.189C256.504 132.409 256.987 132.731 257.394 133.137C257.802 133.544 258.124 134.026 258.345 134.557C258.565 135.088 258.678 135.658 258.678 136.232L258.681 183.184Z" fill="white"/>
<path d="M307.007 168.971C307.007 178.083 300.813 183.182 290.092 183.182H264.211V131.855H288.66C299.378 131.855 305.576 136.621 305.576 145.817C305.684 148.123 305.073 150.406 303.829 152.352C302.584 154.297 300.767 155.811 298.626 156.684C301.146 157.582 303.316 159.256 304.821 161.465C306.326 163.674 307.089 166.303 307 168.973L307.007 168.971ZM286.318 151.503C288.997 151.503 290.505 150.333 290.505 148.16C290.505 145.987 288.999 144.9 286.318 144.9H279.536V151.505L286.318 151.503ZM279.536 170.053H287.406C290.001 170.053 291.51 168.633 291.51 166.626C291.51 164.453 290.001 163.114 287.406 163.114H279.536V170.053Z" fill="white"/>
</g>
<mask id="mask0_122_194" style="mask-type:alpha" maskUnits="userSpaceOnUse" x="-444" y="131" width="738" height="690">
<g opacity="0.7">
<path opacity="0.2" d="M-229 164.354L-195.725 165.161C-162.239 166.164 -94.7893 168.595 -57.3483 188.591C-19.9074 208.587 -12.3488 246.006 -10.0493 287.41C-7.74974 328.813 -11.4021 374.233 27.5218 393.326C66.4457 412.418 148.449 405.658 176.115 431.609C203.78 457.56 177.034 515.877 183.275 554.88C189.516 593.882 228.197 613.838 247.353 623.571L266.963 632.702" stroke="#4A4DC7" stroke-width="14"/>
<path opacity="0.7" d="M-360 281.354L-326.725 282.161C-293.225 283.188 -225.818 285.548 -188.348 305.591C-150.879 325.635 -142.858 363.813 -140.529 405.264C-138.201 446.715 -141.911 492.04 -102.958 511.18C-64.0053 530.32 17.4203 522.611 45.1147 548.609C72.8091 574.608 46.5254 633.684 52.7952 672.734C59.0651 711.784 97.7031 731.669 116.873 741.426L136.483 750.556" stroke="#4A4DC7" stroke-width="14"/>
<path opacity="0.1" d="M-205 138.354L-171.725 139.161C-138.239 140.164 -70.7893 142.595 -33.3483 162.591C4.09259 182.587 11.6512 220.006 13.9507 261.41C16.2503 302.813 12.5979 348.233 51.5218 367.326C90.4457 386.418 172.449 379.658 200.115 405.609C227.78 431.56 201.034 489.877 207.275 528.88C213.516 567.882 252.197 587.838 271.353 597.571L290.963 606.702" stroke="#4A4DC7" stroke-width="14"/>
<path opacity="0.6" d="M-336 255.354L-302.725 256.161C-269.225 257.188 -201.818 259.548 -164.348 279.591C-126.879 299.635 -118.858 337.813 -116.529 379.264C-114.201 420.715 -117.911 466.04 -78.9581 485.18C-40.0053 504.32 41.4203 496.611 69.1147 522.609C96.8091 548.608 70.5254 607.684 76.7952 646.734C83.0651 685.784 121.703 705.669 140.873 715.426L160.483 724.556" stroke="#4A4DC7" stroke-width="14"/>
<path opacity="0.3" d="M-259 182.354L-225.725 183.161C-192.239 184.164 -124.789 186.595 -87.3483 206.591C-49.9074 226.587 -42.3488 264.006 -40.0493 305.41C-37.7497 346.813 -41.4021 392.233 -2.4782 411.326C36.4457 430.418 118.449 423.658 146.115 449.609C173.78 475.56 147.034 533.877 153.275 572.88C159.516 611.882 198.197 631.838 217.353 641.571L236.963 650.702" stroke="#4A4DC7" stroke-width="14"/>
<path opacity="0.8" d="M-390 299.354L-356.725 300.161C-323.225 301.188 -255.818 303.548 -218.348 323.591C-180.879 343.635 -172.858 381.813 -170.529 423.264C-168.201 464.715 -171.911 510.04 -132.958 529.18C-94.0053 548.32 -12.5797 540.611 15.1147 566.609C42.8091 592.608 16.5254 651.684 22.7952 690.734C29.0651 729.784 67.7031 749.669 86.8727 759.426L106.483 768.556" stroke="#4A4DC7" stroke-width="14"/>
<path opacity="0.4" d="M-289 201.354L-255.725 202.161C-222.239 203.164 -154.789 205.595 -117.348 225.591C-79.9074 245.587 -72.3488 283.006 -70.0493 324.41C-67.7497 365.813 -71.4021 411.233 -32.4782 430.326C6.4457 449.418 88.4492 442.658 116.115 468.609C143.78 494.56 117.034 552.877 123.275 591.88C129.516 630.882 168.197 650.838 187.353 660.571L206.963 669.702" stroke="#4A4DC7" stroke-width="14"/>
<path d="M-420 317.354L-386.725 318.161C-353.225 319.188 -285.818 321.548 -248.348 341.591C-210.879 361.635 -202.858 399.813 -200.529 441.264C-198.201 482.715 -201.911 528.04 -162.958 547.18C-124.005 566.32 -42.5797 558.611 -14.8853 584.609C12.8091 610.608 -13.4746 669.684 -7.20476 708.734C-0.934901 747.784 37.7031 767.669 56.8727 777.426L76.483 786.556" stroke="#4A4DC7" stroke-width="14"/>
<path opacity="0.5" d="M-312 228.354L-278.725 229.161C-245.225 230.188 -177.818 232.548 -140.348 252.591C-102.879 272.635 -94.8575 310.813 -92.5291 352.264C-90.2007 393.715 -93.9109 439.04 -54.9581 458.18C-16.0053 477.32 65.4203 469.611 93.1147 495.609C120.809 521.608 94.5254 580.684 100.795 619.734C107.065 658.784 145.703 678.669 164.873 688.426L184.483 697.556" stroke="#4A4DC7" stroke-width="14"/>
<path d="M-443 345.354L-409.725 346.161C-376.239 347.164 -308.789 349.595 -271.348 369.591C-233.907 389.587 -226.349 427.006 -224.049 468.41C-221.75 509.813 -225.402 555.233 -186.478 574.326C-147.554 593.418 -65.5508 586.658 -37.8853 612.609C-10.2198 638.56 -36.9659 696.877 -30.7249 735.88C-24.4839 774.882 14.1974 794.838 33.3526 804.571L52.9629 813.702" stroke="#4A4DC7" stroke-width="14"/>
</g>
</mask>
<g mask="url(#mask0_122_194)">
<rect opacity="0.7" x="161" y="153" width="130" height="129" rx="32" fill="#E5F2FE"/>
</g>
</g>
<defs>
<clipPath id="clip0_122_194">
<rect width="315" height="314" fill="white"/>
</clipPath>
<clipPath id="clip1_122_194">
<rect width="297" height="53" fill="white" transform="translate(10 131)"/>
</clipPath>
</defs>
</svg>
